# This file uses centimeters as units for non-parametric coordinates.

mtllib island proto.mtl
g default
v -2.248552 -0.272338 2.000935
v 2.162378 -0.272338 2.000935
v -0.132543 1.281147 0.499073
v 0.821206 1.281147 0.499073
v -0.132543 1.281147 -0.382184
v 0.821206 1.281147 -0.382184
v -3.022077 -0.427755 -2.083053
v 2.985270 -0.334198 -2.594708
v 0.336538 1.281147 -0.382184
v 1.055027 -0.810153 -5.553666
v -0.079133 -0.428684 3.891227
v 0.336538 1.281147 0.499073
v -0.132543 1.281147 0.056628
v -4.052614 -0.272338 -0.045303
v -0.063149 -0.713909 -0.041577
v 3.158603 -0.272338 -0.045303
v 0.821206 1.281147 0.056628
v 1.790764 0.767558 -0.042653
v 1.476013 0.767558 1.358147
v -0.058467 0.767558 1.358147
v -1.543594 0.767558 1.358147
v -1.543594 0.767558 -0.042653
v -1.543594 0.767558 -1.431949
v -0.058467 0.767558 -1.431949
v 1.476013 0.767558 -1.431949
v 2.372028 0.356958 -2.131204
v 0.572690 0.286632 -3.820679
v -2.430015 0.303540 -1.839065
v -3.018420 0.392278 -0.044312
v -1.988356 0.392278 1.760515
v -0.074881 0.392278 2.839814
v 1.902182 0.392278 1.760515
v 2.614011 0.392278 -0.044312
v 1.790764 0.767558 -0.042653
v 1.476013 0.767558 1.358147
v -0.058467 0.767558 1.358147
v -1.543594 0.767558 1.358147
v -1.543594 0.767558 -0.042653
v -1.543594 0.767558 -1.431949
v -0.058467 0.767558 -1.431949
v 1.476013 0.767558 -1.431949
v -0.106257 3.666567 0.454946
v 0.434466 3.733986 0.631615
v 0.336538 5.176084 0.056628
v -0.232897 3.818411 -0.018364
v 0.857377 3.687197 0.296833
v 1.027654 3.600780 -0.141151
v 0.401081 3.686304 -0.621606
v 0.840801 3.598659 -0.518265
v -0.053597 3.860301 -0.522063
v 1.012112 2.776546 -0.723275
v 1.498468 2.767802 0.056997
v 1.096707 2.916667 0.703803
v 0.129458 2.643925 1.193233
v -0.313098 3.120081 0.764013
v -0.888333 2.735077 0.056997
v -0.497007 3.021036 -0.680671
v 0.338123 2.772495 -1.067905
v 0.575347 2.848258 -0.156537
v 0.575347 2.848258 0.057432
v 0.575347 2.848258 0.272811
v 0.339989 2.848258 0.272811
v 0.110681 2.848258 0.272811
v 0.110681 2.848258 0.057432
v 0.110681 2.848258 -0.156537
v 0.339989 2.848258 -0.156537
vt 0.375000 0.000000
vt 0.625000 0.000000
vt 0.375000 0.250000
vt 0.625000 0.250000
vt 0.375000 0.500000
vt 0.625000 0.500000
vt 0.375000 0.750000
vt 0.625000 0.750000
vt 0.375000 1.000000
vt 0.625000 1.000000
vt 0.875000 0.000000
vt 0.875000 0.250000
vt 0.125000 0.000000
vt 0.125000 0.250000
vt 0.497957 0.500000
vt 0.497957 0.750000
vt 0.497957 0.000000
vt 0.497957 1.000000
vt 0.497957 0.250000
vt 0.249485 0.250000
vt 0.375000 0.375515
vt 0.249485 0.000000
vt 0.375000 0.874485
vt 0.497957 0.874485
vt 0.625000 0.874485
vt 0.750515 0.000000
vt 0.625000 0.375515
vt 0.750515 0.250000
vt 0.497957 0.375515
vt 0.750515 0.131415
vt 0.625000 0.131415
vt 0.497957 0.131415
vt 0.375000 0.131415
vt 0.249485 0.131415
vt 0.125000 0.131415
vt 0.375000 0.618585
vt 0.497957 0.618585
vt 0.625000 0.618585
vt 0.875000 0.131415
vt 0.625000 0.693619
vt 0.875000 0.056381
vt 0.497957 0.693619
vt 0.125000 0.056381
vt 0.375000 0.693619
vt 0.249485 0.056381
vt 0.375000 0.056381
vt 0.497957 0.056381
vt 0.625000 0.056381
vt 0.750515 0.056381
vt 0.000000 0.000000
vt 1.000000 0.000000
vt 1.000000 1.000000
vt 0.000000 1.000000
vt 0.000000 0.000000
vt 1.000000 0.000000
vt 1.000000 1.000000
vt 0.000000 1.000000
vt 0.000000 0.000000
vt 1.000000 0.000000
vt 1.000000 1.000000
vt 0.000000 1.000000
vt 0.000000 0.000000
vt 1.000000 0.000000
vt 1.000000 1.000000
vt 0.000000 1.000000
vt 0.000000 0.000000
vt 1.000000 0.000000
vt 1.000000 1.000000
vt 0.000000 1.000000
vt 0.000000 0.000000
vt 1.000000 0.000000
vt 1.000000 1.000000
vt 0.000000 1.000000
vt 0.000000 0.000000
vt 1.000000 0.000000
vt 1.000000 1.000000
vt 0.000000 1.000000
vt 0.000000 0.000000
vt 1.000000 0.000000
vt 1.000000 1.000000
vt 0.000000 1.000000
vt 0.375000 0.250000
vt 0.497957 0.250000
vt 0.375000 0.375515
vt 0.625000 0.250000
vt 0.625000 0.375515
vt 0.625000 0.500000
vt 0.497957 0.500000
vt 0.375000 0.500000
vt 0.625000 0.500000
vt 0.625000 0.375515
vt 0.625000 0.250000
vt 0.497957 0.250000
vt 0.375000 0.250000
vt 0.375000 0.375515
vt 0.375000 0.500000
vt 0.497957 0.500000
vt 0.625000 0.500000
vt 0.625000 0.375515
vt 0.625000 0.250000
vt 0.497957 0.250000
vt 0.375000 0.250000
vt 0.375000 0.375515
vt 0.375000 0.500000
vt 0.497957 0.500000
vn -0.328724 0.769253 0.547896
vn -0.000499 0.794179 0.607683
vn 0.000744 0.937383 0.348299
vn -0.109446 0.932336 0.344633
vn -0.625342 0.365380 0.689525
vn 0.096677 0.505950 0.857128
vn 0.067985 0.987043 0.145340
vn -0.814859 0.556548 0.162047
vn -0.131816 0.942676 -0.306572
vn -0.038411 0.959866 -0.277816
vn -0.068209 0.853156 -0.517178
vn -0.356934 0.764176 -0.537246
vn -0.106909 -0.993795 0.030685
vn 0.000295 -0.999148 0.041260
vn 0.000572 -0.996995 0.077467
vn -0.121722 -0.989039 0.083583
vn 0.686417 0.669852 0.283072
vn 0.655383 0.751064 0.079855
vn 0.428361 0.903318 0.022871
vn 0.472876 0.868018 0.151435
vn -0.538065 0.841066 0.055632
vn -0.511646 0.798523 0.317143
vn -0.341969 0.933265 0.109885
vn -0.332016 0.943262 0.004660
vn 0.096916 0.967987 -0.231536
vn 0.298715 0.883798 -0.360098
vn 0.146867 -0.987971 0.048410
vn 0.132332 -0.988761 0.069571
vn 0.320826 0.769312 0.552476
vn 0.106905 0.931447 0.347819
vn 0.770150 0.354918 0.530001
vn 0.848047 0.505108 -0.160259
vn -0.481937 0.851256 -0.207607
vn -0.320515 0.943375 -0.085522
vn -0.099561 -0.995020 0.004832
vn 0.026500 -0.999425 0.021174
vn 0.154347 -0.987307 0.037453
vn 0.390284 0.917888 -0.071833
vn 0.648918 0.756693 -0.079509
vn 0.178645 0.538346 -0.823571
vn 0.584296 0.436196 -0.684348
vn -0.556443 0.467181 -0.687105
vn 0.503449 0.859738 0.085969
vn 0.497663 0.867353 -0.005522
vn 0.498536 0.866855 0.004910
vn 0.503449 0.859738 0.085969
vn 0.000000 0.858310 0.513132
vn 0.000000 0.858310 0.513132
vn 0.000000 0.858310 0.513132
vn 0.000000 0.858310 0.513132
vn 0.000000 0.858310 0.513132
vn 0.000000 0.858310 0.513132
vn -0.342025 0.939691 0.000000
vn -0.342025 0.939691 0.000000
vn -0.342025 0.939691 0.000000
vn -0.342025 0.939691 0.000000
vn -0.342025 0.939691 0.000000
vn -0.342025 0.939691 0.000000
vn 0.000000 0.898259 -0.439466
vn 0.000000 0.898259 -0.439466
vn 0.000000 0.898259 -0.439466
vn 0.000000 0.898259 -0.439466
vn 0.000000 0.898259 -0.439466
vn 0.000000 0.898259 -0.439466
vn 0.489311 0.868031 -0.084246
vn 0.489311 0.868031 -0.084246
vn 0.425084 0.794114 -0.434381
vn -0.014221 0.815394 -0.578732
vn -0.425202 0.676179 -0.601653
vn -0.595209 0.745892 -0.298949
vn -0.643454 0.765080 0.024890
vn -0.601319 0.665268 0.442531
vn -0.439516 0.632686 0.637601
vn 0.001566 0.702953 0.711234
vn 0.429504 0.633580 0.643508
vn 0.774656 0.530905 0.343581
vn 0.774846 0.625766 0.089618
vn 0.744165 0.663121 -0.080561
vn 0.000000 0.000000 0.000000
vn 0.000000 0.000000 0.000000
vn 0.000000 0.000000 0.000000
vn 0.000000 0.000000 0.000000
vn 0.000000 0.000000 0.000000
vn 0.000000 0.000000 0.000000
vn 0.000000 0.000000 0.000000
vn 0.000000 0.000000 0.000000
vn 0.000000 0.000000 0.000000
vn 0.000000 0.000000 0.000000
vn 0.000000 0.000000 0.000000
vn 0.000000 0.000000 0.000000
vn 0.000000 0.000000 0.000000
vn 0.000000 0.000000 0.000000
vn 0.000000 0.000000 0.000000
vn 0.000000 0.000000 0.000000
vn 0.000000 0.000000 0.000000
vn 0.000000 0.000000 0.000000
vn 0.000000 0.000000 0.000000
vn 0.000000 0.000000 0.000000
vn 0.000000 0.000000 0.000000
vn 0.000000 0.000000 0.000000
vn 0.000000 0.000000 0.000000
vn 0.000000 0.000000 0.000000
vn 0.000000 0.000000 0.000000
vn 0.000000 0.000000 0.000000
vn 0.000000 0.000000 0.000000
vn 0.000000 0.000000 0.000000
vn 0.000000 0.000000 0.000000
vn 0.000000 0.000000 0.000000
vn 0.000000 0.000000 0.000000
vn 0.000000 0.000000 0.000000
vn 0.000000 0.142900 0.989737
vn 0.000000 0.142900 0.989737
vn -0.055764 -0.524558 0.849546
vn -0.373244 -0.519084 0.768922
vn -0.988169 0.153369 0.000000
vn -0.988169 0.153369 0.000000
vn -0.697592 -0.648551 0.304545
vn -0.827403 -0.560660 0.032617
vn 0.000000 0.142900 0.989737
vn 0.145800 -0.746931 0.648719
vn 0.987916 0.154991 0.000000
vn 0.987916 0.154991 0.000000
vn 0.848585 -0.525690 0.059611
vn 0.780864 -0.614907 0.110186
vn 0.987916 0.154991 0.000000
vn 0.666100 -0.745136 0.032916
vn 0.000000 0.142520 -0.989792
vn -0.000000 0.142520 -0.989792
vn -0.087389 -0.521381 -0.848837
vn -0.022005 -0.609514 -0.792470
vn -0.000000 0.142520 -0.989792
vn -0.179366 -0.699612 -0.691643
vn -0.988169 0.153369 0.000000
vn -0.679554 -0.698086 -0.225571
vn 0.985166 -0.171515 0.005505
vn 0.827853 -0.272190 -0.490481
vn 0.819747 0.320006 -0.474985
vn 0.894157 0.432536 -0.115743
vn 0.880129 -0.111452 0.461467
vn 0.813539 0.482677 0.324312
vn 0.052089 -0.155295 0.986494
vn 0.531408 0.043970 0.845974
vn 0.415483 0.408434 0.812746
vn 0.194759 0.471672 0.859997
vn -0.533221 0.199126 0.822207
vn -0.282296 0.517909 0.807514
vn -0.984472 -0.167589 0.052231
vn -0.814182 0.052210 0.578258
vn -0.783666 0.501175 0.367003
vn -0.855303 0.518067 -0.007942
vn -0.907352 0.095519 -0.409377
vn -0.834751 0.488128 -0.254798
vn -0.023240 -0.253210 -0.967132
vn -0.342923 -0.120069 -0.931659
vn -0.217728 0.373965 -0.901524
vn 0.017438 0.379245 -0.925132
vn 0.384737 -0.292942 -0.875307
vn 0.372343 0.346308 -0.861064
s 1
g pCube1
usemtl initialShadingGroup
f 30/46/1 31/47/2 20/32/3 21/33/4
s 2
f 42/82/5 43/83/6 44/29/7 45/84/8
s 3
f 23/36/9 24/37/10 27/42/11 28/44/12
s 4
f 14/23/13 15/24/14 11/18/15 1/9/16
s 5
f 32/48/17 33/49/18 18/30/19 19/31/20
s 6
f 29/45/21 30/46/22 21/33/23 22/34/24
s 3
f 24/37/10 25/38/25 26/40/26 27/42/11
s 4
f 11/18/15 15/24/14 16/25/27 2/10/28
s 1
f 20/32/3 31/47/2 32/48/29 19/31/30
s 2
f 44/29/7 43/83/6 46/85/31 47/86/32
s 6
f 28/43/33 29/45/21 22/34/24 23/35/34
s 4
f 7/7/35 10/16/36 15/24/14 14/23/13
f 16/25/27 15/24/14 10/16/36 8/8/37
s 5
f 25/39/38 18/30/19 33/49/18 26/41/39
s 2
f 48/88/40 44/29/7 47/86/32 49/87/41
f 45/84/8 44/29/7 48/88/40 50/89/42
s 7
f 19/31/43 18/30/44 17/28/45 4/4/46
s 8
f 12/19/47 20/32/48 19/31/49 4/4/50
f 21/33/51 20/32/48 12/19/47 3/3/52
s 9
f 22/34/53 21/33/54 3/3/55 13/20/56
f 23/35/57 22/34/53 13/20/56 5/14/58
s 10
f 5/5/59 9/15/60 24/37/61 23/36/62
f 9/15/60 6/6/63 25/38/64 24/37/61
s 7
f 17/28/45 18/30/44 25/39/65 6/12/66
s 3
f 27/42/11 26/40/26 8/8/67 10/16/68
f 28/44/12 27/42/11 10/16/68 7/7/69
s 6
f 7/13/70 14/22/71 29/45/21 28/43/33
f 14/22/71 1/1/72 30/46/22 29/45/21
s 1
f 1/1/73 11/17/74 31/47/2 30/46/1
f 32/48/29 31/47/2 11/17/74 2/2/75
s 5
f 2/2/76 16/26/77 33/49/18 32/48/17
f 26/41/39 33/49/18 16/26/77 8/11/78
s off
f 18/50/79 19/51/80 35/52/81 34/53/82
f 19/54/83 20/55/84 36/56/85 35/57/86
f 20/58/87 21/59/88 37/60/89 36/61/90
f 21/62/91 22/63/92 38/64/93 37/65/94
f 22/66/95 23/67/96 39/68/97 38/69/98
f 23/70/99 24/71/100 40/72/101 39/73/102
f 24/74/103 25/75/104 41/76/105 40/77/106
f 25/78/107 18/79/108 34/80/109 41/81/110
s 11
f 3/3/111 12/19/112 62/101/113 63/102/114
s 12
f 13/21/115 3/3/116 63/102/117 64/103/118
s 11
f 12/19/112 4/4/119 61/100/120 62/101/113
s 13
f 4/4/121 17/27/122 60/99/123 61/100/124
f 17/27/122 6/6/125 59/98/126 60/99/123
s 14
f 6/6/127 9/15/128 66/105/129 59/98/130
f 9/15/128 5/5/131 65/104/132 66/105/129
s 12
f 5/5/133 13/21/115 64/103/118 65/104/134
s 13
f 52/91/135 51/90/136 49/87/137 47/86/138
f 53/92/139 52/91/135 47/86/138 46/85/140
s 11
f 54/93/141 53/92/142 46/85/143 43/83/144
f 55/94/145 54/93/141 43/83/144 42/82/146
s 12
f 56/95/147 55/94/148 42/82/149 45/84/150
f 57/96/151 56/95/147 45/84/150 50/89/152
s 14
f 58/97/153 57/96/154 50/89/155 48/88/156
f 51/90/157 58/97/153 48/88/156 49/87/158
s 13
f 60/99/123 59/98/126 51/90/136 52/91/135
f 61/100/124 60/99/123 52/91/135 53/92/139
s 11
f 62/101/113 61/100/120 53/92/142 54/93/141
f 63/102/114 62/101/113 54/93/141 55/94/145
s 12
f 64/103/118 63/102/117 55/94/148 56/95/147
f 65/104/134 64/103/118 56/95/147 57/96/151
s 14
f 66/105/129 65/104/132 57/96/154 58/97/153
f 59/98/130 66/105/129 58/97/153 51/90/157
